<svg xmlns="http://www.w3.org/2000/svg" xmlns:xlink="http://www.w3.org/1999/xlink" version="1.1" x="0px" y="0px" viewBox="0 0 64 80" style="enable-background:new 0 0 64 64;" xml:space="preserve"><g><path d="M55,41c0-1.654-1.346-3-3-3h-2c-0.552,0-1-0.448-1-1s0.448-1,1-1h3v1h2v-3h-3v-2h-2v2c-1.654,0-3,1.346-3,3s1.346,3,3,3h2   c0.552,0,1,0.448,1,1s-0.448,1-1,1h-3v-1h-2v3h3v2h2v-2C53.654,44,55,42.654,55,41z"/><polygon points="50,4.414 50,13 52,13 52,4.414 54.293,6.707 55.707,5.293 51,0.586 46.293,5.293 47.707,6.707  "/><polygon points="41,7.414 41,16 43,16 43,7.414 45.293,9.707 46.707,8.293 42,3.586 37.293,8.293 38.707,9.707  "/><path d="M59.586,51.041l-2.8-0.415C60.482,48.656,63,44.76,63,40.355c0-2.401-0.728-4.71-2.104-6.678l-4.671-6.672l5.27-7.377   L59,18.382v-7.968l2.293,2.293l1.414-1.414L58,6.586l-4.707,4.707l1.414,1.414L57,10.414v6.968l-5.381-2.69l-2.664,4.439   l-1.547-2.321l-4.709,1.57l3.179,8.479l-4.774,6.82C39.728,35.646,39,37.954,39,40.355c0,3.093,1.234,5.991,3.32,8.128   l-4.749-0.703C36.292,46.095,34.274,45,32,45c-1.536,0-2.953,0.503-4.109,1.345L18.806,45H21c2.206,0,4-1.794,4-4   c0-1.744-1.128-3.214-2.687-3.761C22.746,36.6,23,35.829,23,35c0-0.732-0.212-1.409-0.556-2H23c2.206,0,4-1.794,4-4s-1.794-4-4-4H9   c-2.206,0-4,1.794-4,4c0,0.732,0.212,1.409,0.556,2H5c-2.206,0-4,1.794-4,4c0,1.744,1.128,3.214,2.687,3.761   C3.254,39.4,3,40.171,3,41c0,0.833,0.257,1.606,0.693,2.247c-1.366,0.485-2.432,1.676-2.651,3.164   c-0.157,1.056,0.107,2.11,0.745,2.969c0.637,0.859,1.569,1.418,2.626,1.575L25,54.004V63h14v-6.921l19.445,2.88   c0.188,0.026,0.372,0.039,0.556,0.039c1.969,0,3.669-1.468,3.956-3.413c0.157-1.056-0.107-2.11-0.745-2.969   C61.575,51.757,60.643,51.198,59.586,51.041z M46.592,19.19l2.453,3.679l3.336-5.561l6.125,3.063L54.486,26h-6.793l-2.392-6.379   L46.592,19.19z M41,40.355c0-1.989,0.603-3.901,1.743-5.531L47.521,28h6.959l4.777,6.824C60.397,36.454,61,38.366,61,40.355   c0,4.965-3.854,9.159-8.79,9.593l-5.549-0.822C43.22,47.561,41,44.134,41,40.355z M23,41c0,1.103-0.897,2-2,2H7   c-1.103,0-2-0.897-2-2s0.897-2,2-2v2h2v-2h2v2h2v-2h2v2h2v-2h2v2h2v-2C22.103,39,23,39.897,23,41z M7,29c0-1.103,0.897-2,2-2v2h2   v-2h2v2h2v-2h2v2h2v-2h2v2h2v-2c1.103,0,2,0.897,2,2s-0.897,2-2,2h-4H9C7.897,31,7,30.103,7,29z M3,35c0-1.103,0.897-2,2-2v2h2v-2   h2v2h2v-2h2v2h2v-2h2v2h2v-2c1.103,0,2,0.897,2,2s-0.897,2-2,2H7H5C3.897,37,3,36.103,3,35z M3.395,48.188   c-0.319-0.43-0.451-0.957-0.373-1.485C3.164,45.732,4.019,45,5.01,45c0.09,0,0.18,0.006,0.254,0.016l20.918,3.099   c-0.742,1.108-1.178,2.438-1.181,3.868L4.707,48.977C4.18,48.898,3.713,48.618,3.395,48.188z M37,61H27v-9c0-2.757,2.243-5,5-5   s5,2.243,5,5V61z M60.979,55.293c-0.144,0.972-0.993,1.705-1.978,1.705c-0.094,0-0.187-0.007-0.272-0.019L39,54.057V52   c0-0.707-0.107-1.388-0.303-2.032l20.596,3.051c0.527,0.078,0.994,0.358,1.313,0.788C60.925,54.237,61.057,54.765,60.979,55.293z"/><path d="M32,49c-1.654,0-3,1.346-3,3s1.346,3,3,3s3-1.346,3-3S33.654,49,32,49z M32,53c-0.552,0-1-0.448-1-1s0.448-1,1-1   s1,0.448,1,1S32.552,53,32,53z"/></g><text x="0" y="79" fill="#000000" font-size="5px" font-weight="bold" font-family="'Helvetica Neue', Helvetica, Arial-Unicode, Arial, Sans-serif">Created by Eucalyp</text><text x="0" y="84" fill="#000000" font-size="5px" font-weight="bold" font-family="'Helvetica Neue', Helvetica, Arial-Unicode, Arial, Sans-serif">from the Noun Project</text></svg>